<svg width="100" height="100" viewBox="0 0 61 58" fill="none" xmlns="http://www.w3.org/2000/svg">
<path d="M27.861 27.7797C27.861 27.2508 27.4198 26.8221 26.8755 26.8221H26.4208C26.2319 26.8221 26.047 26.8748 25.8881 26.974L23.9604 28.1774C23.7592 28.303 23.6376 28.5193 23.6376 28.7517C23.6376 29.2908 24.2506 29.6171 24.7182 29.3268L25.9733 28.5477C25.9806 28.5432 25.9891 28.5408 25.9978 28.5408C26.0229 28.5408 26.0433 28.5606 26.0433 28.585V35.6893C26.0433 36.177 26.4502 36.5724 26.9522 36.5724C27.4541 36.5724 27.861 36.177 27.861 35.6893V27.7797Z" fill="white"/>
<path d="M31.8673 36.3487C32.3834 36.5867 32.9681 36.7058 33.6213 36.7058C34.3301 36.7058 34.954 36.5629 35.4929 36.2773C36.0352 35.9884 36.4582 35.5933 36.7619 35.0918C37.069 34.5871 37.2225 34.0127 37.2225 33.3683C37.2225 32.7431 37.0853 32.1876 36.8109 31.702C36.5365 31.2164 36.1609 30.8355 35.684 30.5594C35.2071 30.2801 34.6649 30.1404 34.0574 30.1404C33.6524 30.1404 33.28 30.2118 32.9403 30.3547C32.6074 30.4915 32.3482 30.6635 32.1627 30.8705C32.1555 30.8785 32.1452 30.8831 32.1342 30.8831C32.112 30.8831 32.0948 30.8644 32.0972 30.843L32.2862 29.1521C32.3406 28.6662 32.7629 28.298 33.266 28.298H35.9388C36.3582 28.298 36.6982 27.9676 36.6982 27.56C36.6982 27.1525 36.3582 26.8221 35.9388 26.8221H31.7683C31.2625 26.8221 30.8388 27.1942 30.7878 27.6832L30.4467 30.9539C30.3942 31.4573 30.7538 31.9135 31.2676 31.9955L31.4672 32.0273C31.7962 32.0798 32.124 31.9521 32.416 31.7956C32.4992 31.751 32.589 31.7103 32.6855 31.6735C32.9762 31.5624 33.2718 31.5084 33.5723 31.5116C33.9414 31.5116 34.2681 31.5941 34.5522 31.7591C34.8364 31.921 35.0602 32.1448 35.2235 32.4304C35.3868 32.7161 35.4668 33.043 35.4635 33.4112C35.4668 33.773 35.3884 34.0952 35.2284 34.3777C35.0683 34.6601 34.8495 34.8807 34.5718 35.0394C34.2942 35.1981 33.9774 35.2775 33.6213 35.2775C33.1673 35.2775 32.7786 35.1521 32.4552 34.9014C32.3624 34.8284 32.2815 34.7495 32.2126 34.6645C31.922 34.3062 31.5592 33.9206 31.0897 33.9206C30.5802 33.9206 30.1545 34.343 30.336 34.8057C30.4123 35.0003 30.5128 35.1845 30.6375 35.3584C30.9413 35.7774 31.3512 36.1075 31.8673 36.3487Z" fill="white"/>
<path fill-rule="evenodd" clip-rule="evenodd" d="M23.6376 13.4153C23.0934 13.4153 22.6521 13.844 22.6521 14.3729V15.3305H18.7101C16.533 15.3305 14.7681 17.0455 14.7681 19.161V40.2288C14.7681 42.3444 16.533 44.0594 18.7101 44.0594H42.3623C44.5394 44.0594 46.3043 42.3444 46.3043 40.2288V19.161C46.3043 17.0455 44.5394 15.3305 42.3623 15.3305H38.4202V14.3729C38.4202 13.844 37.979 13.4153 37.4347 13.4153C36.8905 13.4153 36.4492 13.844 36.4492 14.3729V15.3305H24.6231V14.3729C24.6231 13.844 24.1819 13.4153 23.6376 13.4153ZM42.3623 17.2458C43.4508 17.2458 44.3333 18.1033 44.3333 19.161V20.1187H16.7391V19.161C16.7391 18.1033 17.6215 17.2458 18.7101 17.2458H42.3623ZM44.3333 40.2288V21.5551H16.7391V40.2288C16.7391 41.2866 17.6215 42.1441 18.7101 42.1441H42.3623C43.4508 42.1441 44.3333 41.2866 44.3333 40.2288Z" fill="white"/>
</svg>
